<?xml version="1.0" encoding="UTF-8"?>
<svg width="240px" height="70px" viewBox="0 0 240 70" version="1.1" xmlns="http://www.w3.org/2000/svg" xmlns:xlink="http://www.w3.org/1999/xlink">
    <!-- Generator: Sketch 51.3 (57544) - http://www.bohemiancoding.com/sketch -->
    <title>signicat-logo-black</title>
    <desc>Created with Sketch.</desc>
    <defs>
        <polygon id="path-1" points="17 45 223 45 223 23 17 23"></polygon>
    </defs>
    <g id="signicat-logo-black" stroke="none" stroke-width="1" fill="none" fill-rule="evenodd">
        <path d="M17.0005,37.6195 L23.6875,37.6195 C23.7175,39.9385 24.6515,40.1195 26.5795,40.1195 L34.7725,40.1195 C36.1885,40.1195 37.6355,39.9695 37.6355,38.2825 C37.6355,36.3845 36.8515,36.2645 28.2355,36.2645 C18.1755,36.2645 17.0305,35.0585 17.0305,29.6965 C17.0305,25.7505 17.3925,22.7085 25.8265,22.7085 L35.1645,22.7085 C42.8765,22.7085 43.5995,25.3295 43.5995,29.1545 L43.5995,29.8485 L36.9115,29.8485 C36.9115,28.2515 36.7305,27.5895 33.6585,27.5895 L26.2485,27.5895 C24.7415,27.5895 23.7175,28.1005 23.7175,29.2755 C23.7175,31.1735 24.5305,31.2335 31.7005,31.2035 C42.0925,31.1735 44.5025,31.8065 44.5025,38.1615 C44.5025,44.0365 42.5145,45.0005 33.6285,45.0005 L25.5245,45.0005 C19.4395,45.0005 17.0005,43.8555 17.0005,39.1255 L17.0005,37.6195 Z" id="Fill-1" fill="#333333"></path>
        <mask id="mask-2" fill="white">
            <use xlink:href="#path-1"></use>
        </mask>
        <g id="Clip-5"></g>
        <polygon id="Fill-4" fill="#333333" mask="url(#mask-2)" points="49 45 56 45 56 23 49 23"></polygon>
        <path d="M60,30.7896106 C60,24.48726 63.5299082,23 69.4613356,23 L79.3687098,23 C86.8430566,23 87.8808594,25.7060829 87.8808594,29.897452 L87.8808594,30.5813745 L81.4147765,30.5813745 C81.4147765,28.4407859 80.1997398,28.1733357 78.0936104,28.1733357 L70.9441924,28.1733357 C67.6230263,28.1733357 66.7624574,28.9756863 66.7624574,32.6617621 L66.7624574,35.3382379 C66.7624574,39.0243137 67.6230263,39.8266643 70.9441924,39.8266643 L77.9744699,39.8266643 C79.6946232,39.8266643 81.4147765,39.5592141 81.4147765,37.4788265 L81.4147765,36.8541181 L73.2295249,36.8541181 L73.2295249,32.3952988 L88,32.3952988 L88,38.5190203 C88,44.7029428 84.7969898,45 77.3807364,45 L69.4613356,45 C63.5299082,45 60,43.5137269 60,37.2113763 L60,30.7896106 Z" id="Fill-6" fill="#333333" mask="url(#mask-2)"></path>
        <polygon id="Fill-7" fill="#333333" mask="url(#mask-2)" points="93 23 103.476544 23 116.177406 38.9837682 116.23807 38.9837682 116.23807 23 123 23 123 45 112.523456 45 99.8225937 29.0172406 99.7609194 29.0172406 99.7609194 45 93 45"></polygon>
        <polygon id="Fill-8" fill="#333333" mask="url(#mask-2)" points="127 45 134 45 134 23 127 23"></polygon>
        <path d="M138,30.7896106 C138,24.48726 141.529908,23 147.46232,23 L155.203502,23 C164.576221,23 165.792243,25.0221604 165.733165,31.1162749 L159.148926,31.1162749 L159.148926,30.5221604 C159.148926,28.9756863 158.021521,28.529607 156.064071,28.529607 L148.886099,28.529607 C145.416253,28.529607 144.763442,30.1649022 144.763442,32.8403912 L144.763442,35.1596088 C144.763442,38.2811771 145.416253,39.470393 148.529662,39.470393 L155.55994,39.470393 C158.525653,39.470393 159.415761,39.1733357 159.415761,36.4968599 L166,36.4968599 L166,38.5190203 C166,42.1458819 164.694377,45 158.080599,45 L147.46232,45 C141.529908,45 138,43.5137269 138,37.2113763 L138,30.7896106 Z" id="Fill-9" fill="#333333" mask="url(#mask-2)"></path>
        <path d="M179.110017,36.3700766 L187.797594,36.3700766 L183.392382,28.1053235 L179.110017,36.3700766 Z M178.989201,23 L187.827037,23 L200,45 L192.445453,45 L190.334728,41.1102297 L176.572883,41.1102297 L174.58399,45 L167,45 L178.989201,23 Z" id="Fill-10" fill="#333333" mask="url(#mask-2)"></path>
        <polygon id="Fill-11" fill="#333333" mask="url(#mask-2)" points="197 23 222 23 222 28.4694851 212.779509 28.4694851 212.779509 45 206.218529 45 206.218529 28.4694851 197 28.4694851"></polygon>
    </g>
</svg>