<svg xmlns="http://www.w3.org/2000/svg" width="28" height="28" viewBox="0 0 28 28">
    <g fill="none" fill-rule="evenodd">
        <circle cx="13.8" cy="13.8" r="13.8" fill="#3A78BD"/>
        <g fill="#FFF">
            <path d="M1.318 5.856C.478 5.856-.148 5.08.03 4.26c.06-.278.138-.546.232-.803.264-.72.648-1.336 1.152-1.848C1.919 1.096 2.527.7 3.239.42 3.95.14 4.747 0 5.627 0c.736 0 1.42.108 2.052.324.632.216 1.184.528 1.656.936.472.408.844.916 1.116 1.524.272.608.408 1.296.408 2.064 0 .56-.06 1.044-.18 1.452-.12.408-.28.76-.48 1.056-.2.296-.428.56-.684.792-.256.232-.512.46-.768.684-.304.256-.584.504-.84.744s-.48.508-.672.804c-.192.296-.34.644-.444 1.044-.03.117-.056.242-.078.375-.102.63-.656 1.09-1.295 1.09-.778 0-1.39-.675-1.31-1.449.013-.118.027-.232.043-.34.072-.488.188-.916.348-1.284.16-.368.356-.692.588-.972.232-.28.508-.556.828-.828.256-.224.5-.432.732-.624.232-.192.44-.404.624-.636.184-.232.328-.492.432-.78.104-.288.156-.632.156-1.032 0-.48-.084-.892-.252-1.236-.168-.344-.372-.62-.612-.828-.24-.208-.496-.36-.768-.456-.272-.096-.512-.144-.72-.144-.992 0-1.724.324-2.196.972-.307.422-.515.937-.622 1.546-.109.617-.662 1.058-1.288 1.058h-.083zM7.008 16.464c0 .911-.739 1.65-1.65 1.65-.911 0-1.65-.739-1.65-1.65 0-.911.739-1.65 1.65-1.65.911 0 1.65.739 1.65 1.65" transform="translate(8.4 5.1)"/>
        </g>
    </g>
</svg>
