<svg xmlns="http://www.w3.org/2000/svg" width="38" height="39" viewBox="0 0 38 39">
    <g fill="none" fill-rule="evenodd" transform="translate(0 .4)">
        <circle cx="19" cy="19" r="19" fill="#F0F4F8"/>
        <circle cx="19.148" cy="19.148" r="13.621" fill="#1A6DC8" fill-opacity=".141" style="mix-blend-mode:multiply"/>
        <g fill="#3A78BD">
            <path d="M1.3 5.78c-.828 0-1.446-.767-1.27-1.576.06-.275.137-.539.23-.793.26-.71.64-1.318 1.137-1.824.497-.505 1.097-.896 1.8-1.172C3.899.138 4.685 0 5.554 0c.726 0 1.401.107 2.025.32.624.213 1.169.52 1.635.924.465.402.833.904 1.101 1.504.269.6.403 1.28.403 2.037 0 .553-.06 1.03-.178 1.433s-.276.75-.474 1.043c-.197.292-.422.552-.675.781-.252.23-.505.454-.758.675-.3.253-.576.498-.829.734-.253.238-.474.502-.663.794-.19.293-.335.636-.438 1.03-.03.117-.056.24-.078.37-.1.623-.647 1.076-1.277 1.076-.768 0-1.373-.666-1.293-1.43.013-.116.027-.228.042-.335.071-.482.185-.904.344-1.267.157-.363.35-.683.58-.96.229-.276.501-.548.817-.817.253-.221.493-.426.723-.616.229-.19.434-.399.616-.628.181-.228.323-.486.426-.77.103-.284.154-.623.154-1.018 0-.474-.083-.88-.249-1.22-.166-.34-.367-.612-.604-.817-.237-.205-.49-.356-.758-.45-.268-.095-.506-.143-.71-.143-.98 0-1.702.32-2.168.96-.303.416-.508.925-.614 1.526-.107.609-.653 1.044-1.272 1.044h-.081zM6.917 16.25c0 .9-.73 1.629-1.629 1.629-.9 0-1.628-.73-1.628-1.629 0-.9.729-1.628 1.628-1.628.9 0 1.629.729 1.629 1.628" transform="translate(13.818 10.561)"/>
        </g>
    </g>
</svg>
