<?xml version="1.0" encoding="UTF-8"?>
<svg width="206px" height="70px" viewBox="0 0 206 70" version="1.1" xmlns="http://www.w3.org/2000/svg" xmlns:xlink="http://www.w3.org/1999/xlink">
    <!-- Generator: Sketch 50.2 (55047) - http://www.bohemiancoding.com/sketch -->
    <title>signicat-logo</title>
    <desc>Created with Sketch.</desc>
    <defs>
        <polygon id="path-1" points="0.0005 0.709 27.5025 0.709 27.5025 23 0.0005 23"></polygon>
        <polygon id="path-3" points="0 45 206 45 206 23 0 23"></polygon>
    </defs>
    <g id="signicat-logo" stroke="none" stroke-width="1" fill="none" fill-rule="evenodd">
        <g id="Group-3" transform="translate(0.000000, 22.000000)">
            <mask id="mask-2" fill="white">
                <use xlink:href="#path-1"></use>
            </mask>
            <g id="Clip-2"></g>
            <path d="M0.0005,15.6195 L6.6875,15.6195 C6.7175,17.9385 7.6515,18.1195 9.5795,18.1195 L17.7725,18.1195 C19.1885,18.1195 20.6355,17.9695 20.6355,16.2825 C20.6355,14.3845 19.8515,14.2645 11.2355,14.2645 C1.1755,14.2645 0.0305,13.0585 0.0305,7.6965 C0.0305,3.7505 0.3925,0.7085 8.8265,0.7085 L18.1645,0.7085 C25.8765,0.7085 26.5995,3.3295 26.5995,7.1545 L26.5995,7.8485 L19.9115,7.8485 C19.9115,6.2515 19.7305,5.5895 16.6585,5.5895 L9.2485,5.5895 C7.7415,5.5895 6.7175,6.1005 6.7175,7.2755 C6.7175,9.1735 7.5305,9.2335 14.7005,9.2035 C25.0925,9.1735 27.5025,9.8065 27.5025,16.1615 C27.5025,22.0365 25.5145,23.0005 16.6285,23.0005 L8.5245,23.0005 C2.4395,23.0005 0.0005,21.8555 0.0005,17.1255 L0.0005,15.6195 Z" id="Fill-1" fill="#FFFFFF" mask="url(#mask-2)"></path>
        </g>
        <mask id="mask-4" fill="white">
            <use xlink:href="#path-3"></use>
        </mask>
        <g id="Clip-5"></g>
        <polygon id="Fill-4" fill="#FFFFFF" mask="url(#mask-4)" points="32 45 39 45 39 23 32 23"></polygon>
        <path d="M43,30.7896106 C43,24.48726 46.5299082,23 52.4613356,23 L62.3687098,23 C69.8430566,23 70.8808594,25.7060829 70.8808594,29.897452 L70.8808594,30.5813745 L64.4147765,30.5813745 C64.4147765,28.4407859 63.1997398,28.1733357 61.0936104,28.1733357 L53.9441924,28.1733357 C50.6230263,28.1733357 49.7624574,28.9756863 49.7624574,32.6617621 L49.7624574,35.3382379 C49.7624574,39.0243137 50.6230263,39.8266643 53.9441924,39.8266643 L60.9744699,39.8266643 C62.6946232,39.8266643 64.4147765,39.5592141 64.4147765,37.4788265 L64.4147765,36.8541181 L56.2295249,36.8541181 L56.2295249,32.3952988 L71,32.3952988 L71,38.5190203 C71,44.7029428 67.7969898,45 60.3807364,45 L52.4613356,45 C46.5299082,45 43,43.5137269 43,37.2113763 L43,30.7896106 Z" id="Fill-6" fill="#FFFFFF" mask="url(#mask-4)"></path>
        <polygon id="Fill-7" fill="#FFFFFF" mask="url(#mask-4)" points="76 23 86.4765435 23 99.1774063 38.9837682 99.2380696 38.9837682 99.2380696 23 106 23 106 45 95.5234565 45 82.8225937 29.0172406 82.7609194 29.0172406 82.7609194 45 76 45"></polygon>
        <polygon id="Fill-8" fill="#FFFFFF" mask="url(#mask-4)" points="110 45 117 45 117 23 110 23"></polygon>
        <path d="M121,30.7896106 C121,24.48726 124.529908,23 130.46232,23 L138.203502,23 C147.576221,23 148.792243,25.0221604 148.733165,31.1162749 L142.148926,31.1162749 L142.148926,30.5221604 C142.148926,28.9756863 141.021521,28.529607 139.064071,28.529607 L131.886099,28.529607 C128.416253,28.529607 127.763442,30.1649022 127.763442,32.8403912 L127.763442,35.1596088 C127.763442,38.2811771 128.416253,39.470393 131.529662,39.470393 L138.55994,39.470393 C141.525653,39.470393 142.415761,39.1733357 142.415761,36.4968599 L149,36.4968599 L149,38.5190203 C149,42.1458819 147.694377,45 141.080599,45 L130.46232,45 C124.529908,45 121,43.5137269 121,37.2113763 L121,30.7896106 Z" id="Fill-9" fill="#FFFFFF" mask="url(#mask-4)"></path>
        <path d="M162.110017,36.3700766 L170.797594,36.3700766 L166.392382,28.1053235 L162.110017,36.3700766 Z M161.989201,23 L170.827037,23 L183,45 L175.445453,45 L173.334728,41.1102297 L159.572883,41.1102297 L157.58399,45 L150,45 L161.989201,23 Z" id="Fill-10" fill="#FFFFFF" mask="url(#mask-4)"></path>
        <polygon id="Fill-11" fill="#FFFFFF" mask="url(#mask-4)" points="180 23 205 23 205 28.4694851 195.779509 28.4694851 195.779509 45 189.218529 45 189.218529 28.4694851 180 28.4694851"></polygon>
    </g>
</svg>